<svg width="81" height="82" viewBox="0 0 81 82" fill="none" xmlns="http://www.w3.org/2000/svg">
<g filter="url(#filter0_f_1_446)">
<circle cx="40.5" cy="41.5" r="9.5" fill="#20BFB6"/>
</g>
<path opacity="0.4" d="M67.395 16.558C65.0325 6.16297 55.965 1.48297 48 1.48297C48 1.48297 48 1.48297 47.9775 1.48297C40.035 1.48297 30.945 6.14047 28.5825 16.5355C25.95 28.1455 33.06 37.978 39.495 44.1655C41.88 46.4605 48 52.108 48 52.108C48 52.108 54.12 46.4605 56.4825 44.1655C62.9175 37.978 70.0275 28.168 67.395 16.558Z" fill="#20BFB6"/>
<path d="M48 27.8305C51.9143 27.8305 55.0875 24.6573 55.0875 20.743C55.0875 16.8286 51.9143 13.6555 48 13.6555C44.0857 13.6555 40.9125 16.8286 40.9125 20.743C40.9125 24.6573 44.0857 27.8305 48 27.8305Z" fill="#20BFB6"/>
<defs>
<filter id="filter0_f_1_446" x="0" y="1" width="81" height="81" filterUnits="userSpaceOnUse" color-interpolation-filters="sRGB">
<feFlood flood-opacity="0" result="BackgroundImageFix"/>
<feBlend mode="normal" in="SourceGraphic" in2="BackgroundImageFix" result="shape"/>
<feGaussianBlur stdDeviation="15.5" result="effect1_foregroundBlur_1_446"/>
</filter>
</defs>
</svg>
