<svg width="25" height="24" viewBox="0 0 25 24" fill="none" xmlns="http://www.w3.org/2000/svg">
<path opacity="0.4" d="M18.5899 16.83L18.9799 19.99C19.0799 20.82 18.1899 21.4 17.4799 20.97L13.2899 18.48C12.8299 18.48 12.3799 18.45 11.9399 18.39C12.6799 17.52 13.1199 16.42 13.1199 15.23C13.1199 12.39 10.6599 10.09 7.61993 10.09C6.45993 10.09 5.38994 10.42 4.49994 11C4.46994 10.75 4.45993 10.5 4.45993 10.24C4.45993 5.68999 8.40993 2 13.2899 2C18.1699 2 22.1199 5.68999 22.1199 10.24C22.1199 12.94 20.7299 15.33 18.5899 16.83Z" fill="#20BFB6"/>
<path d="M13.1199 15.23C13.1199 16.42 12.6799 17.52 11.9399 18.39C10.9499 19.59 9.37993 20.36 7.61993 20.36L5.00993 21.91C4.56993 22.18 4.00993 21.81 4.06993 21.3L4.31993 19.33C2.97993 18.4 2.11993 16.91 2.11993 15.23C2.11993 13.47 3.05994 11.92 4.49994 11C5.38994 10.42 6.45993 10.09 7.61993 10.09C10.6599 10.09 13.1199 12.39 13.1199 15.23Z" fill="#20BFB6"/>
</svg>
