<svg width="24" height="25" viewBox="0 0 24 25" fill="none" xmlns="http://www.w3.org/2000/svg">
<path fill-rule="evenodd" clip-rule="evenodd" d="M11.9999 18.9553L7.31067 21.3706C6.74943 21.6596 6.05526 21.4482 5.7602 20.8984C5.64271 20.6794 5.60216 20.4287 5.64484 20.1848L6.54041 15.0693L2.74672 11.4464C2.29267 11.0128 2.28338 10.3007 2.72597 9.85587C2.90221 9.67873 3.13314 9.56346 3.38301 9.52788L8.62576 8.78154L10.9704 4.12725C11.251 3.57019 11.9394 3.34148 12.508 3.6164C12.7345 3.72588 12.9177 3.90542 13.0295 4.12725L15.3741 8.78154L20.6169 9.52788C21.2443 9.61721 21.6791 10.188 21.5879 10.8027C21.5516 11.0475 21.434 11.2738 21.2531 11.4464L17.4595 15.0693L18.355 20.1848C18.4622 20.7971 18.0425 21.3786 17.4175 21.4836C17.1687 21.5254 16.9127 21.4857 16.6892 21.3706L11.9999 18.9553Z" fill="#FFBD3D"/>
</svg>
